<?xml version="1.0" encoding="UTF-8" standalone="no"?>
<!-- Created with Inkscape (http://www.inkscape.org/) -->

<svg
   width="500"
   height="500"
   viewBox="0 0 500 500"
   version="1.1"
   id="svg1"
   xml:space="preserve"
   inkscape:version="1.3.2 (091e20e, 2023-11-25, custom)"
   sodipodi:docname="palmtree.svg"
   inkscape:export-filename="palmtree.png"
   inkscape:export-xdpi="96"
   inkscape:export-ydpi="96"
   xmlns:inkscape="http://www.inkscape.org/namespaces/inkscape"
   xmlns:sodipodi="http://sodipodi.sourceforge.net/DTD/sodipodi-0.dtd"
   xmlns:xlink="http://www.w3.org/1999/xlink"
   xmlns="http://www.w3.org/2000/svg"
   xmlns:svg="http://www.w3.org/2000/svg"><sodipodi:namedview
     id="namedview1"
     pagecolor="#505050"
     bordercolor="#eeeeee"
     borderopacity="1"
     inkscape:showpageshadow="0"
     inkscape:pageopacity="0"
     inkscape:pagecheckerboard="0"
     inkscape:deskcolor="#d1d1d1"
     inkscape:document-units="px"
     inkscape:zoom="1.4485269"
     inkscape:cx="256.81263"
     inkscape:cy="261.9903"
     inkscape:window-width="1920"
     inkscape:window-height="1009"
     inkscape:window-x="1912"
     inkscape:window-y="-8"
     inkscape:window-maximized="1"
     inkscape:current-layer="layer8" /><defs
     id="defs1"><linearGradient
       id="linearGradient68"
       inkscape:collect="always"><stop
         style="stop-color:#573c21;stop-opacity:1;"
         offset="0.15214577"
         id="stop68" /><stop
         style="stop-color:#e59f57;stop-opacity:1;"
         offset="0.37297422"
         id="stop70" /><stop
         style="stop-color:#e59f57;stop-opacity:1;"
         offset="0.850384"
         id="stop71" /><stop
         style="stop-color:#573c21;stop-opacity:1;"
         offset="1"
         id="stop69" /></linearGradient><linearGradient
       inkscape:collect="always"
       xlink:href="#linearGradient68"
       id="linearGradient69"
       x1="241.12827"
       y1="143.56798"
       x2="241.12827"
       y2="456.92719"
       gradientUnits="userSpaceOnUse" /></defs><g
     inkscape:groupmode="layer"
     id="layer5"
     inkscape:label="base"
     style="display:inline"
     sodipodi:insensitive="true"><path
       style="fill:url(#linearGradient69);stroke:#000000;stroke-width:5;stroke-linecap:round;stroke-linejoin:round;stroke-dasharray:none;stroke-opacity:1"
       d="m 234.72121,454.42717 c 0,0 -50.09661,-132.62691 -10.70052,-246.97504 39.39609,-114.348125 23.56133,-38.33812 17.21283,-14.64518 -6.3485,23.69294 -18.6731,84.19804 -7.89302,139.59971 10.78008,55.40167 40.04068,122.02051 40.04068,122.02051 z"
       id="path1"
       sodipodi:nodetypes="czzzcc" /><g
       inkscape:groupmode="layer"
       id="layer9"
       inkscape:label="stamnerven"
       style="opacity:0.5"
       sodipodi:insensitive="true"><path
         style="fill:none;stroke:#000000;stroke-width:2.5;stroke-linecap:round;stroke-linejoin:round;stroke-dasharray:none;stroke-opacity:1"
         d="m 215.75564,237.25301 c 5.69544,6.3858 16.42192,2.15357 16.42192,2.15357"
         id="path57"
         sodipodi:nodetypes="cc" /><path
         style="fill:none;stroke:#000000;stroke-width:2.5;stroke-linecap:round;stroke-linejoin:round;stroke-dasharray:none;stroke-opacity:1"
         d="m 209.68737,281.41212 c 10.35535,6.55839 19.41066,0.20754 19.41066,0.20754"
         id="path58"
         sodipodi:nodetypes="cc" /><path
         style="fill:none;stroke:#000000;stroke-width:2.5;stroke-linecap:round;stroke-linejoin:round;stroke-dasharray:none;stroke-opacity:1"
         d="m 211.93945,259.11829 c 7.42133,5.35026 18.07025,1.33948 18.07025,1.33948"
         id="path59"
         sodipodi:nodetypes="cc" /><path
         style="fill:none;stroke:#000000;stroke-width:2.5;stroke-linecap:round;stroke-linejoin:round;stroke-dasharray:none;stroke-opacity:1"
         d="m 209.68202,302.20356 c 10.18276,4.8325 19.84543,-1.12267 19.84543,-1.12267"
         id="path60"
         sodipodi:nodetypes="cc" /><path
         style="fill:none;stroke:#000000;stroke-width:2.5;stroke-linecap:round;stroke-linejoin:round;stroke-dasharray:none;stroke-opacity:1"
         d="m 209.65378,328.26452 c 14.84266,6.04062 22.34851,-3.49576 22.34851,-3.49576"
         id="path61"
         sodipodi:nodetypes="cc" /><path
         style="fill:none;stroke:#000000;stroke-width:2.5;stroke-linecap:round;stroke-linejoin:round;stroke-dasharray:none;stroke-opacity:1"
         d="m 212.44445,358.8767 c 16.74115,12.42642 25.4194,-6.46338 25.4194,-6.46338"
         id="path62"
         sodipodi:nodetypes="cc" /><path
         style="fill:none;stroke:#000000;stroke-width:2.5;stroke-linecap:round;stroke-linejoin:round;stroke-dasharray:none;stroke-opacity:1"
         d="m 216.99682,387.5507 c 21.05587,11.39088 28.34494,-8.80799 28.34494,-8.80799"
         id="path63"
         sodipodi:nodetypes="cc" /><path
         style="fill:none;stroke:#000000;stroke-width:2.5;stroke-linecap:round;stroke-linejoin:round;stroke-dasharray:none;stroke-opacity:1"
         d="m 223.72244,417.91115 c 23.8173,16.22338 32.622,-6.61751 32.622,-6.61751"
         id="path64"
         sodipodi:nodetypes="cc" /><path
         style="fill:none;stroke:#000000;stroke-width:2.5;stroke-linecap:round;stroke-linejoin:round;stroke-dasharray:none;stroke-opacity:1"
         d="m 229.13496,437.4473 c 31.92899,14.3249 32.34684,-12.38193 32.34684,-12.38193"
         id="path65"
         sodipodi:nodetypes="cc" /><path
         style="fill:none;stroke:#000000;stroke-width:2.5;stroke-linecap:butt;stroke-linejoin:miter;stroke-dasharray:none;stroke-opacity:1"
         d="m 219.20837,223.07719 c 5.69544,7.33504 15.03039,2.51333 15.03039,2.51333"
         id="path66"
         sodipodi:nodetypes="cc" /><path
         style="fill:none;stroke:#000000;stroke-width:2.5;stroke-linecap:butt;stroke-linejoin:miter;stroke-dasharray:none;stroke-opacity:1"
         d="m 225.05781,204.44895 c 5.95432,5.60915 12.70659,2.76229 12.70659,2.76229"
         id="path67"
         sodipodi:nodetypes="cc" /></g></g><g
     inkscape:groupmode="layer"
     id="layer6"
     inkscape:label="leaves"
     style="opacity:1"
     sodipodi:insensitive="true"><g
       id="g48"
       transform="matrix(-0.52141867,-0.67420285,0.75554431,-0.46909242,282.28802,385.94311)"
       style="stroke-width:1.15165"><path
         style="fill:#3ac263;fill-opacity:1;stroke:#000000;stroke-width:5.75823;stroke-linecap:butt;stroke-linejoin:round;stroke-dasharray:none;stroke-opacity:1"
         d="m 258.88369,140.48755 c 0,0 27.09649,7.24874 37.62443,45.21835 -1.38071,-2.50254 -6.55839,-0.69036 -6.55839,-0.69036 0,0 11.13201,5.86804 11.39089,36.93408 -5.09138,-7.33504 -10.70053,-6.55839 -10.70053,-6.55839 0,0 8.02539,26.40614 7.33504,53.76152 -4.14214,-7.76651 -8.71575,-9.23352 -8.71575,-9.23352 0,0 6.03089,28.71409 -5.44629,42.34863 0,0 2.33968,-4.8105 -3.52835,-11.28259 0,0 -0.067,11.30459 -9.21427,20.5381 1.20812,-15.96449 -2.86697,-21.57364 -2.86697,-21.57364 0,0 -3.1066,2.93402 -4.83249,11.73607 -4.65991,-15.79191 -0.77666,-41.93917 -0.77666,-41.93917 0,0 -5.43655,3.2792 -7.50762,15.01526 -8.02539,-37.27925 2.15736,-51.43156 2.15736,-51.43156 0,0 -6.47209,3.3655 -8.45686,10.44165 -11.90865,-23.9036 -1.12183,-50.74121 -1.12183,-50.74121 0,0 -5.60915,4.22843 -6.73098,8.88834 -0.43147,-40.47215 17.94927,-51.43156 17.94927,-51.43156 z"
         id="path47"
         sodipodi:nodetypes="ccccccccccccccccccc" /></g><g
       id="g34"
       transform="matrix(0.85677476,-0.48192237,-0.46198746,-0.62096468,98.807557,356.31057)"
       style="stroke-width:1.15113"><path
         style="fill:#3ac263;fill-opacity:1;stroke:#000000;stroke-width:5.75562;stroke-linecap:butt;stroke-linejoin:round;stroke-dasharray:none;stroke-opacity:1"
         d="m 258.88369,140.48755 c 0,0 27.09649,7.24874 37.62443,45.21835 -1.38071,-2.50254 -6.55839,-0.69036 -6.55839,-0.69036 0,0 11.13201,5.86804 11.39089,36.93408 -5.09138,-7.33504 -10.70053,-6.55839 -10.70053,-6.55839 0,0 8.02539,26.40614 7.33504,53.76152 -4.14214,-7.76651 -8.71575,-9.23352 -8.71575,-9.23352 0,0 6.03089,28.71409 -5.44629,42.34863 0,0 2.33968,-4.8105 -3.52835,-11.28259 0,0 -0.067,11.30459 -9.21427,20.5381 1.20812,-15.96449 -2.86697,-21.57364 -2.86697,-21.57364 0,0 -3.1066,2.93402 -4.83249,11.73607 -4.65991,-15.79191 -0.77666,-41.93917 -0.77666,-41.93917 0,0 -5.43655,3.2792 -7.50762,15.01526 -8.02539,-37.27925 2.15736,-51.43156 2.15736,-51.43156 0,0 -6.47209,3.3655 -8.45686,10.44165 -11.90865,-23.9036 -1.12183,-50.74121 -1.12183,-50.74121 0,0 -5.60915,4.22843 -6.73098,8.88834 -0.43147,-40.47215 17.94927,-51.43156 17.94927,-51.43156 z"
         id="path33"
         sodipodi:nodetypes="ccccccccccccccccccc" /></g><g
       id="g26"
       transform="matrix(-0.0953894,-0.99395129,-0.86333033,0.10982172,391.24564,371.94166)"
       style="stroke-width:1.07299"><path
         style="fill:#3ac263;fill-opacity:1;stroke:#000000;stroke-width:5.36493;stroke-linecap:butt;stroke-linejoin:round;stroke-dasharray:none;stroke-opacity:1"
         d="m 258.88369,140.48755 c 0,0 27.09649,7.24874 37.62443,45.21835 -1.38071,-2.50254 -6.55839,-0.69036 -6.55839,-0.69036 0,0 11.13201,5.86804 11.39089,36.93408 -5.09138,-7.33504 -10.70053,-6.55839 -10.70053,-6.55839 0,0 8.02539,26.40614 7.33504,53.76152 -4.14214,-7.76651 -8.71575,-9.23352 -8.71575,-9.23352 0,0 6.03089,28.71409 -5.44629,42.34863 0,0 2.33968,-4.8105 -3.52835,-11.28259 0,0 -0.067,11.30459 -9.21427,20.5381 1.20812,-15.96449 -2.86697,-21.57364 -2.86697,-21.57364 0,0 -3.1066,2.93402 -4.83249,11.73607 -4.65991,-15.79191 -0.77666,-41.93917 -0.77666,-41.93917 0,0 -5.43655,3.2792 -7.50762,15.01526 -8.02539,-37.27925 2.15736,-51.43156 2.15736,-51.43156 0,0 -6.47209,3.3655 -8.45686,10.44165 -11.90865,-23.9036 -1.12183,-50.74121 -1.12183,-50.74121 0,0 -5.60915,4.22843 -6.73098,8.88834 -0.43147,-40.47215 17.94927,-51.43156 17.94927,-51.43156 z"
         id="path26"
         sodipodi:nodetypes="ccccccccccccccccccc" /></g><g
       id="g18"
       transform="matrix(-0.8660254,-0.5,-0.5,0.8660254,540.91293,142.87331)"><path
         style="fill:#3ac263;fill-opacity:1;stroke:#000000;stroke-width:5;stroke-linecap:butt;stroke-linejoin:round;stroke-dasharray:none;stroke-opacity:1"
         d="m 258.88369,140.48755 c 0,0 27.09649,7.24874 37.62443,45.21835 -1.38071,-2.50254 -6.55839,-0.69036 -6.55839,-0.69036 0,0 11.13201,5.86804 11.39089,36.93408 -5.09138,-7.33504 -10.70053,-6.55839 -10.70053,-6.55839 0,0 8.02539,26.40614 7.33504,53.76152 -4.14214,-7.76651 -8.71575,-9.23352 -8.71575,-9.23352 0,0 6.03089,28.71409 -5.44629,42.34863 0,0 2.33968,-4.8105 -3.52835,-11.28259 0,0 -0.067,11.30459 -9.21427,20.5381 1.20812,-15.96449 -2.86697,-21.57364 -2.86697,-21.57364 0,0 -3.1066,2.93402 -4.83249,11.73607 -4.65991,-15.79191 -0.77666,-41.93917 -0.77666,-41.93917 0,0 -5.43655,3.2792 -7.50762,15.01526 -8.02539,-37.27925 2.15736,-51.43156 2.15736,-51.43156 0,0 -6.47209,3.3655 -8.45686,10.44165 -11.90865,-23.9036 -1.12183,-50.74121 -1.12183,-50.74121 0,0 -5.60915,4.22843 -6.73098,8.88834 -0.43147,-40.47215 17.94927,-51.43156 17.94927,-51.43156 z"
         id="path18"
         sodipodi:nodetypes="ccccccccccccccccccc" /></g><g
       id="g41"
       transform="matrix(0.35850819,-0.81193,0.81193,0.35850819,55.1264,299.00519)"
       style="stroke-width:1.12669"><path
         style="fill:#3ac263;fill-opacity:1;stroke:#000000;stroke-width:5.63344;stroke-linecap:butt;stroke-linejoin:round;stroke-dasharray:none;stroke-opacity:1"
         d="m 258.88369,140.48755 c 0,0 27.09649,7.24874 37.62443,45.21835 -1.38071,-2.50254 -6.55839,-0.69036 -6.55839,-0.69036 0,0 11.13201,5.86804 11.39089,36.93408 -5.09138,-7.33504 -10.70053,-6.55839 -10.70053,-6.55839 0,0 8.02539,26.40614 7.33504,53.76152 -4.14214,-7.76651 -8.71575,-9.23352 -8.71575,-9.23352 0,0 6.03089,28.71409 -5.44629,42.34863 0,0 2.33968,-4.8105 -3.52835,-11.28259 0,0 -0.067,11.30459 -9.21427,20.5381 1.20812,-15.96449 -2.86697,-21.57364 -2.86697,-21.57364 0,0 -3.1066,2.93402 -4.83249,11.73607 -4.65991,-15.79191 -0.77666,-41.93917 -0.77666,-41.93917 0,0 -5.43655,3.2792 -7.50762,15.01526 -8.02539,-37.27925 2.15736,-51.43156 2.15736,-51.43156 0,0 -6.47209,3.3655 -8.45686,10.44165 -11.90865,-23.9036 -1.12183,-50.74121 -1.12183,-50.74121 0,0 -5.60915,4.22843 -6.73098,8.88834 -0.43147,-40.47215 17.94927,-51.43156 17.94927,-51.43156 z"
         id="path40"
         sodipodi:nodetypes="ccccccccccccccccccc" /></g><g
       id="g11"><path
         style="fill:#3ac263;fill-opacity:1;stroke:#000000;stroke-width:5;stroke-linecap:butt;stroke-linejoin:round;stroke-dasharray:none;stroke-opacity:1"
         d="m 258.88369,140.48755 c 0,0 27.09649,7.24874 37.62443,45.21835 -1.38071,-2.50254 -6.55839,-0.69036 -6.55839,-0.69036 0,0 11.13201,5.86804 11.39089,36.93408 -5.09138,-7.33504 -10.70053,-6.55839 -10.70053,-6.55839 0,0 8.02539,26.40614 7.33504,53.76152 -4.14214,-7.76651 -8.71575,-9.23352 -8.71575,-9.23352 0,0 6.03089,28.71409 -5.44629,42.34863 0,0 2.33968,-4.8105 -3.52835,-11.28259 0,0 -0.067,11.30459 -9.21427,20.5381 1.20812,-15.96449 -2.86697,-21.57364 -2.86697,-21.57364 0,0 -3.1066,2.93402 -4.83249,11.73607 -4.65991,-15.79191 -0.77666,-41.93917 -0.77666,-41.93917 0,0 -5.43655,3.2792 -7.50762,15.01526 -8.02539,-37.27925 2.15736,-51.43156 2.15736,-51.43156 0,0 -6.47209,3.3655 -8.45686,10.44165 -11.90865,-23.9036 -1.12183,-50.74121 -1.12183,-50.74121 0,0 -5.60915,4.22843 -6.73098,8.88834 -0.43147,-40.47215 17.94927,-51.43156 17.94927,-51.43156 z"
         id="path2"
         sodipodi:nodetypes="ccccccccccccccccccc" /></g><g
       inkscape:groupmode="layer"
       id="layer7"
       inkscape:label="bladnerven"
       style="opacity:0.5"
       sodipodi:insensitive="true"><g
         id="g54"
         style="stroke:#000000;stroke-width:1.15165;stroke-opacity:1"
         transform="matrix(-0.52141867,-0.67420285,0.75554431,-0.46909242,282.28802,385.94311)"><g
           id="g49"
           style="stroke:#000000;stroke-width:1.15165;stroke-opacity:1"><path
             style="fill:none;stroke:#000000;stroke-width:2.87912;stroke-linecap:butt;stroke-linejoin:miter;stroke-dasharray:none;stroke-opacity:1"
             d="m 258.88369,140.48755 c 10.71366,23.52193 26.83145,108.3078 12.18678,171.03582"
             id="path48"
             sodipodi:nodetypes="cc" /></g><g
           id="g53"
           style="stroke:#000000;stroke-width:2.87912;stroke-dasharray:none;stroke-opacity:1"><path
             style="fill:none;stroke:#000000;stroke-width:2.87912;stroke-linecap:round;stroke-linejoin:round;stroke-dasharray:none;stroke-opacity:1"
             d="m 266.00976,162.62569 -4.72438,7.00844"
             id="path49" /><path
             style="fill:none;stroke:#000000;stroke-width:2.87912;stroke-linecap:round;stroke-linejoin:round;stroke-dasharray:none;stroke-opacity:1"
             d="m 270.11682,181.65374 6.6675,2.99118"
             id="path50" /><path
             style="fill:none;stroke:#000000;stroke-width:2.87912;stroke-linecap:round;stroke-linejoin:round;stroke-dasharray:none;stroke-opacity:1"
             d="m 267.96609,212.34776 5.58797,-8.811 8.11182,5.27187"
             id="path51" /><path
             style="fill:none;stroke:#000000;stroke-width:2.87912;stroke-linecap:round;stroke-linejoin:round;stroke-dasharray:none;stroke-opacity:1"
             d="m 271.90276,250 4.88158,-6.05114"
             id="path52" /><path
             style="fill:none;stroke:#000000;stroke-width:2.87912;stroke-linecap:round;stroke-linejoin:round;stroke-dasharray:none;stroke-opacity:1"
             d="m 277.1735,254.93935 -0.24135,-5.1e-4 5.00619,2.92945"
             id="path53" /></g></g><g
         id="g10"
         style="stroke:#000000;stroke-opacity:1"><g
           id="g9"
           style="stroke:#000000;stroke-opacity:1"><path
             style="fill:none;stroke:#000000;stroke-width:2.5;stroke-linecap:butt;stroke-linejoin:miter;stroke-dasharray:none;stroke-opacity:1"
             d="m 258.88369,140.48755 c 10.71366,23.52193 26.83145,108.3078 12.18678,171.03582"
             id="path3"
             sodipodi:nodetypes="cc" /></g><g
           id="g8"
           style="stroke:#000000;stroke-width:2.5;stroke-dasharray:none;stroke-opacity:1"><path
             style="fill:none;stroke:#000000;stroke-width:2.5;stroke-linecap:round;stroke-linejoin:round;stroke-dasharray:none;stroke-opacity:1"
             d="m 266.00976,162.62569 -4.72438,7.00844"
             id="path4" /><path
             style="fill:none;stroke:#000000;stroke-width:2.5;stroke-linecap:round;stroke-linejoin:round;stroke-dasharray:none;stroke-opacity:1"
             d="m 270.11682,181.65374 6.6675,2.99118"
             id="path5" /><path
             style="fill:none;stroke:#000000;stroke-width:2.5;stroke-linecap:round;stroke-linejoin:round;stroke-dasharray:none;stroke-opacity:1"
             d="m 267.96609,212.34776 5.58797,-8.811 8.11182,5.27187"
             id="path6" /><path
             style="fill:none;stroke:#000000;stroke-width:2.5;stroke-linecap:round;stroke-linejoin:round;stroke-dasharray:none;stroke-opacity:1"
             d="m 271.90276,250 4.88158,-6.05114"
             id="path7" /><path
             style="fill:none;stroke:#000000;stroke-width:2.5;stroke-linecap:round;stroke-linejoin:round;stroke-dasharray:none;stroke-opacity:1"
             d="m 277.1735,254.93935 -0.24135,-5.1e-4 5.00619,2.92945"
             id="path8" /></g></g><g
         id="g40"
         style="stroke:#000000;stroke-width:1.15113;stroke-opacity:1"
         transform="matrix(0.85677476,-0.48192237,-0.46198746,-0.62096468,98.807557,356.31057)"><g
           id="g35"
           style="stroke:#000000;stroke-width:1.15113;stroke-opacity:1"><path
             style="fill:none;stroke:#000000;stroke-width:2.87781;stroke-linecap:butt;stroke-linejoin:miter;stroke-dasharray:none;stroke-opacity:1"
             d="m 258.88369,140.48755 c 10.71366,23.52193 26.83145,108.3078 12.18678,171.03582"
             id="path34"
             sodipodi:nodetypes="cc" /></g><g
           id="g39"
           style="stroke:#000000;stroke-width:2.87781;stroke-dasharray:none;stroke-opacity:1"><path
             style="fill:none;stroke:#000000;stroke-width:2.87781;stroke-linecap:round;stroke-linejoin:round;stroke-dasharray:none;stroke-opacity:1"
             d="m 266.00976,162.62569 -4.72438,7.00844"
             id="path35" /><path
             style="fill:none;stroke:#000000;stroke-width:2.87781;stroke-linecap:round;stroke-linejoin:round;stroke-dasharray:none;stroke-opacity:1"
             d="m 270.11682,181.65374 6.6675,2.99118"
             id="path36" /><path
             style="fill:none;stroke:#000000;stroke-width:2.87781;stroke-linecap:round;stroke-linejoin:round;stroke-dasharray:none;stroke-opacity:1"
             d="m 267.96609,212.34776 5.58797,-8.811 8.11182,5.27187"
             id="path37" /><path
             style="fill:none;stroke:#000000;stroke-width:2.87781;stroke-linecap:round;stroke-linejoin:round;stroke-dasharray:none;stroke-opacity:1"
             d="m 271.90276,250 4.88158,-6.05114"
             id="path38" /><path
             style="fill:none;stroke:#000000;stroke-width:2.87781;stroke-linecap:round;stroke-linejoin:round;stroke-dasharray:none;stroke-opacity:1"
             d="m 277.1735,254.93935 -0.24135,-5.1e-4 5.00619,2.92945"
             id="path39" /></g></g><g
         id="g33"
         style="stroke:#000000;stroke-width:1.07299;stroke-opacity:1"
         transform="matrix(-0.0953894,-0.99395129,-0.86333033,0.10982172,391.24564,371.94166)"><g
           id="g27"
           style="stroke:#000000;stroke-width:1.07299;stroke-opacity:1"><path
             style="fill:none;stroke:#000000;stroke-width:2.68247;stroke-linecap:butt;stroke-linejoin:miter;stroke-dasharray:none;stroke-opacity:1"
             d="m 258.88369,140.48755 c 10.71366,23.52193 26.83145,108.3078 12.18678,171.03582"
             id="path27"
             sodipodi:nodetypes="cc" /></g><g
           id="g32"
           style="stroke:#000000;stroke-width:2.68247;stroke-dasharray:none;stroke-opacity:1"><path
             style="fill:none;stroke:#000000;stroke-width:2.68247;stroke-linecap:round;stroke-linejoin:round;stroke-dasharray:none;stroke-opacity:1"
             d="m 266.00976,162.62569 -4.72438,7.00844"
             id="path28" /><path
             style="fill:none;stroke:#000000;stroke-width:2.68247;stroke-linecap:round;stroke-linejoin:round;stroke-dasharray:none;stroke-opacity:1"
             d="m 270.11682,181.65374 6.6675,2.99118"
             id="path29" /><path
             style="fill:none;stroke:#000000;stroke-width:2.68247;stroke-linecap:round;stroke-linejoin:round;stroke-dasharray:none;stroke-opacity:1"
             d="m 267.96609,212.34776 5.58797,-8.811 8.11182,5.27187"
             id="path30" /><path
             style="fill:none;stroke:#000000;stroke-width:2.68247;stroke-linecap:round;stroke-linejoin:round;stroke-dasharray:none;stroke-opacity:1"
             d="m 271.90276,250 4.88158,-6.05114"
             id="path31" /><path
             style="fill:none;stroke:#000000;stroke-width:2.68247;stroke-linecap:round;stroke-linejoin:round;stroke-dasharray:none;stroke-opacity:1"
             d="m 277.1735,254.93935 -0.24135,-5.1e-4 5.00619,2.92945"
             id="path32" /></g></g><g
         id="g25"
         style="stroke:#000000;stroke-opacity:1"
         transform="matrix(-0.8660254,-0.5,-0.5,0.8660254,540.91293,142.87331)"><g
           id="g19"
           style="stroke:#000000;stroke-opacity:1"><path
             style="fill:none;stroke:#000000;stroke-width:2.5;stroke-linecap:butt;stroke-linejoin:miter;stroke-dasharray:none;stroke-opacity:1"
             d="m 258.88369,140.48755 c 10.71366,23.52193 26.83145,108.3078 12.18678,171.03582"
             id="path19"
             sodipodi:nodetypes="cc" /></g><g
           id="g24"
           style="stroke:#000000;stroke-width:2.5;stroke-dasharray:none;stroke-opacity:1"><path
             style="fill:none;stroke:#000000;stroke-width:2.5;stroke-linecap:round;stroke-linejoin:round;stroke-dasharray:none;stroke-opacity:1"
             d="m 266.00976,162.62569 -4.72438,7.00844"
             id="path20" /><path
             style="fill:none;stroke:#000000;stroke-width:2.5;stroke-linecap:round;stroke-linejoin:round;stroke-dasharray:none;stroke-opacity:1"
             d="m 270.11682,181.65374 6.6675,2.99118"
             id="path21" /><path
             style="fill:none;stroke:#000000;stroke-width:2.5;stroke-linecap:round;stroke-linejoin:round;stroke-dasharray:none;stroke-opacity:1"
             d="m 267.96609,212.34776 5.58797,-8.811 8.11182,5.27187"
             id="path22" /><path
             style="fill:none;stroke:#000000;stroke-width:2.5;stroke-linecap:round;stroke-linejoin:round;stroke-dasharray:none;stroke-opacity:1"
             d="m 271.90276,250 4.88158,-6.05114"
             id="path23" /><path
             style="fill:none;stroke:#000000;stroke-width:2.5;stroke-linecap:round;stroke-linejoin:round;stroke-dasharray:none;stroke-opacity:1"
             d="m 277.1735,254.93935 -0.24135,-5.1e-4 5.00619,2.92945"
             id="path24" /></g></g><g
         id="g47"
         style="stroke:#000000;stroke-width:1.12669;stroke-opacity:1"
         transform="matrix(0.35850819,-0.81193,0.81193,0.35850819,55.1264,299.00519)"><g
           id="g42"
           style="stroke:#000000;stroke-width:1.12669;stroke-opacity:1"><path
             style="fill:none;stroke:#000000;stroke-width:2.81672;stroke-linecap:butt;stroke-linejoin:miter;stroke-dasharray:none;stroke-opacity:1"
             d="m 258.88369,140.48755 c 10.71366,23.52193 26.83145,108.3078 12.18678,171.03582"
             id="path41"
             sodipodi:nodetypes="cc" /></g><g
           id="g46"
           style="stroke:#000000;stroke-width:2.81672;stroke-dasharray:none;stroke-opacity:1"><path
             style="fill:none;stroke:#000000;stroke-width:2.81672;stroke-linecap:round;stroke-linejoin:round;stroke-dasharray:none;stroke-opacity:1"
             d="m 266.00976,162.62569 -4.72438,7.00844"
             id="path42" /><path
             style="fill:none;stroke:#000000;stroke-width:2.81672;stroke-linecap:round;stroke-linejoin:round;stroke-dasharray:none;stroke-opacity:1"
             d="m 270.11682,181.65374 6.6675,2.99118"
             id="path43" /><path
             style="fill:none;stroke:#000000;stroke-width:2.81672;stroke-linecap:round;stroke-linejoin:round;stroke-dasharray:none;stroke-opacity:1"
             d="m 267.96609,212.34776 5.58797,-8.811 8.11182,5.27187"
             id="path44" /><path
             style="fill:none;stroke:#000000;stroke-width:2.81672;stroke-linecap:round;stroke-linejoin:round;stroke-dasharray:none;stroke-opacity:1"
             d="m 271.90276,250 4.88158,-6.05114"
             id="path45" /><path
             style="fill:none;stroke:#000000;stroke-width:2.81672;stroke-linecap:round;stroke-linejoin:round;stroke-dasharray:none;stroke-opacity:1"
             d="m 277.1735,254.93935 -0.24135,-5.1e-4 5.00619,2.92945"
             id="path46" /></g></g></g></g><g
     inkscape:groupmode="layer"
     id="layer8"
     inkscape:label="bottomgrass"
     sodipodi:insensitive="true"><path
       style="fill:#3ac263;fill-opacity:1;stroke:#000000;stroke-width:2.5;stroke-linecap:round;stroke-linejoin:round;stroke-dasharray:none;stroke-opacity:1;paint-order:normal"
       d="m 232.65014,467.54395 39.35033,0.86294 c 5.12564,-9.64108 18.81221,-14.49748 18.81221,-14.49748 -3.62437,-2.41625 -10.4391,-1.7923 -10.4391,-1.7923 l 13.5457,-14.0859 c -12.51271,1.5533 -18.63962,9.14722 -18.63962,9.14722 l -0.51059,-12.92324 c -4.23815,-0.68739 -11.22547,13.26842 -11.22547,13.26842 -2.68486,-10.9835 -12.08124,-19.58886 -12.08124,-19.58886 0,0 -2.67513,7.59392 -2.41625,17.69038 0,0 -13.28936,-20.53811 -29.51274,-18.12186 0,0 9.83758,10.87312 12.7716,20.02034 0,0 -13.11678,-11.56347 -26.75132,-9.4924 0,0 4.92641,3.22145 6.71871,8.61867 0,0 -10.03767,-3.82867 -14.55312,4.8361 0,0 28.89028,0.17977 34.9309,16.05797 z"
       id="path54"
       sodipodi:nodetypes="cccccccccccccccc" /></g></svg>
